<mxfile host="app.diagrams.net" modified="2024-03-06T22:27:54.939Z" agent="Mozilla/5.0 (Windows NT 10.0; Win64; x64) AppleWebKit/537.36 (KHTML, like Gecko) Chrome/122.0.0.0 Safari/537.36" etag="aKolYxyq1k-zsqos8YDL" version="24.0.2" type="github">
  <diagram id="C5RBs43oDa-KdzZeNtuy" name="Page-1">
    <mxGraphModel dx="2277" dy="2562" grid="1" gridSize="10" guides="1" tooltips="1" connect="1" arrows="1" fold="1" page="1" pageScale="1" pageWidth="827" pageHeight="1169" math="0" shadow="0">
      <root>
        <mxCell id="WIyWlLk6GJQsqaUBKTNV-0" />
        <mxCell id="WIyWlLk6GJQsqaUBKTNV-1" parent="WIyWlLk6GJQsqaUBKTNV-0" />
        <mxCell id="a0fRmnBFIjUAvSHUjLkj-1" value=":GeneralCatalogController" style="swimlane;fontStyle=0;align=center;verticalAlign=top;childLayout=stackLayout;horizontal=1;startSize=26;horizontalStack=0;resizeParent=1;resizeLast=0;collapsible=1;marginBottom=0;rounded=0;shadow=0;strokeWidth=1;" vertex="1" parent="WIyWlLk6GJQsqaUBKTNV-1">
          <mxGeometry x="880" y="-390" width="530" height="150" as="geometry">
            <mxRectangle x="550" y="140" width="160" height="26" as="alternateBounds" />
          </mxGeometry>
        </mxCell>
        <mxCell id="a0fRmnBFIjUAvSHUjLkj-2" value="- generalCatalogService IGeneralCatalogService" style="text;align=left;verticalAlign=top;spacingLeft=4;spacingRight=4;overflow=hidden;rotatable=0;points=[[0,0.5],[1,0.5]];portConstraint=eastwest;" vertex="1" parent="a0fRmnBFIjUAvSHUjLkj-1">
          <mxGeometry y="26" width="530" height="26" as="geometry" />
        </mxCell>
        <mxCell id="a0fRmnBFIjUAvSHUjLkj-7" value="" style="line;html=1;strokeWidth=1;align=left;verticalAlign=middle;spacingTop=-1;spacingLeft=3;spacingRight=3;rotatable=0;labelPosition=right;points=[];portConstraint=eastwest;" vertex="1" parent="a0fRmnBFIjUAvSHUjLkj-1">
          <mxGeometry y="52" width="530" height="8" as="geometry" />
        </mxCell>
        <mxCell id="a0fRmnBFIjUAvSHUjLkj-8" value="+ getGeneralCatalogDepartment(Principal, String): List&lt;GeneralCatalogResponsse&gt;" style="text;align=left;verticalAlign=top;spacingLeft=4;spacingRight=4;overflow=hidden;rotatable=0;points=[[0,0.5],[1,0.5]];portConstraint=eastwest;" vertex="1" parent="a0fRmnBFIjUAvSHUjLkj-1">
          <mxGeometry y="60" width="530" height="26" as="geometry" />
        </mxCell>
        <mxCell id="a0fRmnBFIjUAvSHUjLkj-10" value="+ getGeneralCatalogMunicipality(Principal, String, String): List&lt;GeneralCatalogResponsse&gt;" style="text;align=left;verticalAlign=top;spacingLeft=4;spacingRight=4;overflow=hidden;rotatable=0;points=[[0,0.5],[1,0.5]];portConstraint=eastwest;" vertex="1" parent="a0fRmnBFIjUAvSHUjLkj-1">
          <mxGeometry y="86" width="530" height="26" as="geometry" />
        </mxCell>
        <mxCell id="a0fRmnBFIjUAvSHUjLkj-11" value="+ getGeneralCatalogLocation(Principal, String, String, String): List&lt;GeneralCatalogResponsse&gt;" style="text;align=left;verticalAlign=top;spacingLeft=4;spacingRight=4;overflow=hidden;rotatable=0;points=[[0,0.5],[1,0.5]];portConstraint=eastwest;" vertex="1" parent="a0fRmnBFIjUAvSHUjLkj-1">
          <mxGeometry y="112" width="530" height="26" as="geometry" />
        </mxCell>
        <mxCell id="a0fRmnBFIjUAvSHUjLkj-12" value=":GeneralCatalogController" style="swimlane;fontStyle=0;align=center;verticalAlign=top;childLayout=stackLayout;horizontal=1;startSize=26;horizontalStack=0;resizeParent=1;resizeLast=0;collapsible=1;marginBottom=0;rounded=0;shadow=0;strokeWidth=1;" vertex="1" parent="WIyWlLk6GJQsqaUBKTNV-1">
          <mxGeometry x="164" y="-270" width="500" height="520" as="geometry">
            <mxRectangle x="550" y="140" width="160" height="26" as="alternateBounds" />
          </mxGeometry>
        </mxCell>
        <mxCell id="a0fRmnBFIjUAvSHUjLkj-13" value="- transactionManager: TransactionManager    " style="text;align=left;verticalAlign=top;spacingLeft=4;spacingRight=4;overflow=hidden;rotatable=0;points=[[0,0.5],[1,0.5]];portConstraint=eastwest;" vertex="1" parent="a0fRmnBFIjUAvSHUjLkj-12">
          <mxGeometry y="26" width="500" height="26" as="geometry" />
        </mxCell>
        <mxCell id="a0fRmnBFIjUAvSHUjLkj-19" value="- crmManagementWebClient: CrmManagementWebClient" style="text;align=left;verticalAlign=top;spacingLeft=4;spacingRight=4;overflow=hidden;rotatable=0;points=[[0,0.5],[1,0.5]];portConstraint=eastwest;" vertex="1" parent="a0fRmnBFIjUAvSHUjLkj-12">
          <mxGeometry y="52" width="500" height="26" as="geometry" />
        </mxCell>
        <mxCell id="a0fRmnBFIjUAvSHUjLkj-20" value="- generalCatalog IGeneralCatalogService" style="text;align=left;verticalAlign=top;spacingLeft=4;spacingRight=4;overflow=hidden;rotatable=0;points=[[0,0.5],[1,0.5]];portConstraint=eastwest;" vertex="1" parent="a0fRmnBFIjUAvSHUjLkj-12">
          <mxGeometry y="78" width="500" height="26" as="geometry" />
        </mxCell>
        <mxCell id="a0fRmnBFIjUAvSHUjLkj-14" value="" style="line;html=1;strokeWidth=1;align=left;verticalAlign=middle;spacingTop=-1;spacingLeft=3;spacingRight=3;rotatable=0;labelPosition=right;points=[];portConstraint=eastwest;" vertex="1" parent="a0fRmnBFIjUAvSHUjLkj-12">
          <mxGeometry y="104" width="500" height="8" as="geometry" />
        </mxCell>
        <mxCell id="a0fRmnBFIjUAvSHUjLkj-15" value="+ UpdateDataValidation(Principal): UpdateDataValidateResponse" style="text;align=left;verticalAlign=top;spacingLeft=4;spacingRight=4;overflow=hidden;rotatable=0;points=[[0,0.5],[1,0.5]];portConstraint=eastwest;" vertex="1" parent="a0fRmnBFIjUAvSHUjLkj-12">
          <mxGeometry y="112" width="500" height="26" as="geometry" />
        </mxCell>
        <mxCell id="a0fRmnBFIjUAvSHUjLkj-16" value="+ dataUpdateCli(Principal): DataCliResponse" style="text;align=left;verticalAlign=top;spacingLeft=4;spacingRight=4;overflow=hidden;rotatable=0;points=[[0,0.5],[1,0.5]];portConstraint=eastwest;" vertex="1" parent="a0fRmnBFIjUAvSHUjLkj-12">
          <mxGeometry y="138" width="500" height="26" as="geometry" />
        </mxCell>
        <mxCell id="a0fRmnBFIjUAvSHUjLkj-17" value="+ byteToResource(byte[], String) Resource" style="text;align=left;verticalAlign=top;spacingLeft=4;spacingRight=4;overflow=hidden;rotatable=0;points=[[0,0.5],[1,0.5]];portConstraint=eastwest;" vertex="1" parent="a0fRmnBFIjUAvSHUjLkj-12">
          <mxGeometry y="164" width="500" height="26" as="geometry" />
        </mxCell>
        <mxCell id="a0fRmnBFIjUAvSHUjLkj-23" value="+ setGeneralInformation(ObjectNode, DataUpdateRequest)" style="text;align=left;verticalAlign=top;spacingLeft=4;spacingRight=4;overflow=hidden;rotatable=0;points=[[0,0.5],[1,0.5]];portConstraint=eastwest;" vertex="1" parent="a0fRmnBFIjUAvSHUjLkj-12">
          <mxGeometry y="190" width="500" height="30" as="geometry" />
        </mxCell>
        <mxCell id="a0fRmnBFIjUAvSHUjLkj-30" value="+ sendDocument(ObjectNode, DataUpdateRequest, Principal)" style="text;align=left;verticalAlign=top;spacingLeft=4;spacingRight=4;overflow=hidden;rotatable=0;points=[[0,0.5],[1,0.5]];portConstraint=eastwest;" vertex="1" parent="a0fRmnBFIjUAvSHUjLkj-12">
          <mxGeometry y="220" width="500" height="30" as="geometry" />
        </mxCell>
        <mxCell id="a0fRmnBFIjUAvSHUjLkj-32" value="+ setDocumentInformation(ObjectNode, DataUpdateRequest, Principal)" style="text;align=left;verticalAlign=top;spacingLeft=4;spacingRight=4;overflow=hidden;rotatable=0;points=[[0,0.5],[1,0.5]];portConstraint=eastwest;" vertex="1" parent="a0fRmnBFIjUAvSHUjLkj-12">
          <mxGeometry y="250" width="500" height="30" as="geometry" />
        </mxCell>
        <mxCell id="a0fRmnBFIjUAvSHUjLkj-33" value="+ setPersonalInformation(ObjectNode, DataUpdateRequest)" style="text;align=left;verticalAlign=top;spacingLeft=4;spacingRight=4;overflow=hidden;rotatable=0;points=[[0,0.5],[1,0.5]];portConstraint=eastwest;" vertex="1" parent="a0fRmnBFIjUAvSHUjLkj-12">
          <mxGeometry y="280" width="500" height="30" as="geometry" />
        </mxCell>
        <mxCell id="a0fRmnBFIjUAvSHUjLkj-34" value="+ setSalariedInformation(ObjectNode, DataUpdateRequest)" style="text;align=left;verticalAlign=top;spacingLeft=4;spacingRight=4;overflow=hidden;rotatable=0;points=[[0,0.5],[1,0.5]];portConstraint=eastwest;" vertex="1" parent="a0fRmnBFIjUAvSHUjLkj-12">
          <mxGeometry y="310" width="500" height="30" as="geometry" />
        </mxCell>
        <mxCell id="a0fRmnBFIjUAvSHUjLkj-35" value="+ setOwnBusinessInformation(ObjectNode, DataUpdateRequest)" style="text;align=left;verticalAlign=top;spacingLeft=4;spacingRight=4;overflow=hidden;rotatable=0;points=[[0,0.5],[1,0.5]];portConstraint=eastwest;" vertex="1" parent="a0fRmnBFIjUAvSHUjLkj-12">
          <mxGeometry y="340" width="500" height="30" as="geometry" />
        </mxCell>
        <mxCell id="a0fRmnBFIjUAvSHUjLkj-36" value="+ setOtherIncomeInformation(ObjectNode, DataUpdateRequest)" style="text;align=left;verticalAlign=top;spacingLeft=4;spacingRight=4;overflow=hidden;rotatable=0;points=[[0,0.5],[1,0.5]];portConstraint=eastwest;" vertex="1" parent="a0fRmnBFIjUAvSHUjLkj-12">
          <mxGeometry y="370" width="500" height="30" as="geometry" />
        </mxCell>
        <mxCell id="a0fRmnBFIjUAvSHUjLkj-37" value="+ sendCRM(String username, String, DataUpdateRequest)" style="text;align=left;verticalAlign=top;spacingLeft=4;spacingRight=4;overflow=hidden;rotatable=0;points=[[0,0.5],[1,0.5]];portConstraint=eastwest;" vertex="1" parent="a0fRmnBFIjUAvSHUjLkj-12">
          <mxGeometry y="400" width="500" height="30" as="geometry" />
        </mxCell>
        <mxCell id="a0fRmnBFIjUAvSHUjLkj-38" value="+ getCodePlaceIssueDocument(Principal, DataUpdateRequest): String" style="text;align=left;verticalAlign=top;spacingLeft=4;spacingRight=4;overflow=hidden;rotatable=0;points=[[0,0.5],[1,0.5]];portConstraint=eastwest;" vertex="1" parent="a0fRmnBFIjUAvSHUjLkj-12">
          <mxGeometry y="430" width="500" height="30" as="geometry" />
        </mxCell>
        <mxCell id="a0fRmnBFIjUAvSHUjLkj-39" value="+ getDateFormat(DateFormat, String): String" style="text;align=left;verticalAlign=top;spacingLeft=4;spacingRight=4;overflow=hidden;rotatable=0;points=[[0,0.5],[1,0.5]];portConstraint=eastwest;" vertex="1" parent="a0fRmnBFIjUAvSHUjLkj-12">
          <mxGeometry y="460" width="500" height="30" as="geometry" />
        </mxCell>
        <mxCell id="a0fRmnBFIjUAvSHUjLkj-40" value="+ getBirthDate(DateFormat): String" style="text;align=left;verticalAlign=top;spacingLeft=4;spacingRight=4;overflow=hidden;rotatable=0;points=[[0,0.5],[1,0.5]];portConstraint=eastwest;" vertex="1" parent="a0fRmnBFIjUAvSHUjLkj-12">
          <mxGeometry y="490" width="500" height="30" as="geometry" />
        </mxCell>
        <mxCell id="a0fRmnBFIjUAvSHUjLkj-47" value=":GeneralCatalogService" style="swimlane;fontStyle=0;align=center;verticalAlign=top;childLayout=stackLayout;horizontal=1;startSize=26;horizontalStack=0;resizeParent=1;resizeLast=0;collapsible=1;marginBottom=0;rounded=0;shadow=0;strokeWidth=1;" vertex="1" parent="WIyWlLk6GJQsqaUBKTNV-1">
          <mxGeometry x="880" y="20" width="530" height="150" as="geometry">
            <mxRectangle x="550" y="140" width="160" height="26" as="alternateBounds" />
          </mxGeometry>
        </mxCell>
        <mxCell id="a0fRmnBFIjUAvSHUjLkj-48" value="- transactionManager: TransactionManager" style="text;align=left;verticalAlign=top;spacingLeft=4;spacingRight=4;overflow=hidden;rotatable=0;points=[[0,0.5],[1,0.5]];portConstraint=eastwest;" vertex="1" parent="a0fRmnBFIjUAvSHUjLkj-47">
          <mxGeometry y="26" width="530" height="26" as="geometry" />
        </mxCell>
        <mxCell id="a0fRmnBFIjUAvSHUjLkj-49" value="" style="line;html=1;strokeWidth=1;align=left;verticalAlign=middle;spacingTop=-1;spacingLeft=3;spacingRight=3;rotatable=0;labelPosition=right;points=[];portConstraint=eastwest;" vertex="1" parent="a0fRmnBFIjUAvSHUjLkj-47">
          <mxGeometry y="52" width="530" height="8" as="geometry" />
        </mxCell>
        <mxCell id="a0fRmnBFIjUAvSHUjLkj-50" value="+ getGeneralCatalogDepartment(Principal, String): List&lt;GeneralCatalogResponsse&gt;" style="text;align=left;verticalAlign=top;spacingLeft=4;spacingRight=4;overflow=hidden;rotatable=0;points=[[0,0.5],[1,0.5]];portConstraint=eastwest;" vertex="1" parent="a0fRmnBFIjUAvSHUjLkj-47">
          <mxGeometry y="60" width="530" height="26" as="geometry" />
        </mxCell>
        <mxCell id="a0fRmnBFIjUAvSHUjLkj-51" value="+ getGeneralCatalogMunicipality(Principal, String, String): List&lt;GeneralCatalogResponsse&gt;" style="text;align=left;verticalAlign=top;spacingLeft=4;spacingRight=4;overflow=hidden;rotatable=0;points=[[0,0.5],[1,0.5]];portConstraint=eastwest;" vertex="1" parent="a0fRmnBFIjUAvSHUjLkj-47">
          <mxGeometry y="86" width="530" height="26" as="geometry" />
        </mxCell>
        <mxCell id="a0fRmnBFIjUAvSHUjLkj-52" value="+ getGeneralCatalogLocation(Principal, String, String, String): List&lt;GeneralCatalogResponsse&gt;" style="text;align=left;verticalAlign=top;spacingLeft=4;spacingRight=4;overflow=hidden;rotatable=0;points=[[0,0.5],[1,0.5]];portConstraint=eastwest;" vertex="1" parent="a0fRmnBFIjUAvSHUjLkj-47">
          <mxGeometry y="112" width="530" height="26" as="geometry" />
        </mxCell>
        <mxCell id="a0fRmnBFIjUAvSHUjLkj-54" value="1" style="endArrow=open;html=1;endSize=12;startArrow=diamondThin;startSize=14;startFill=1;edgeStyle=orthogonalEdgeStyle;align=left;verticalAlign=bottom;rounded=0;fontSize=12;curved=1;" edge="1" parent="WIyWlLk6GJQsqaUBKTNV-1" source="a0fRmnBFIjUAvSHUjLkj-1" target="a0fRmnBFIjUAvSHUjLkj-47">
          <mxGeometry x="-1" y="3" relative="1" as="geometry">
            <mxPoint x="270" y="-60" as="sourcePoint" />
            <mxPoint x="430" y="-1" as="targetPoint" />
            <Array as="points">
              <mxPoint x="1145" y="-130" />
              <mxPoint x="1145" y="-130" />
            </Array>
          </mxGeometry>
        </mxCell>
        <mxCell id="a0fRmnBFIjUAvSHUjLkj-55" value="1" style="endArrow=open;html=1;endSize=12;startArrow=diamondThin;startSize=14;startFill=1;edgeStyle=orthogonalEdgeStyle;align=left;verticalAlign=bottom;rounded=0;fontSize=12;curved=1;" edge="1" parent="WIyWlLk6GJQsqaUBKTNV-1" source="a0fRmnBFIjUAvSHUjLkj-12" target="a0fRmnBFIjUAvSHUjLkj-47">
          <mxGeometry x="-1" y="3" relative="1" as="geometry">
            <mxPoint x="430" y="190" as="sourcePoint" />
            <mxPoint x="900" y="-50" as="targetPoint" />
          </mxGeometry>
        </mxCell>
      </root>
    </mxGraphModel>
  </diagram>
</mxfile>
